<svg width="520" height="200" viewBox="0 0 520 200" fill="none" xmlns="http://www.w3.org/2000/svg">
  <defs>
    <linearGradient id="shield" x1="0" y1="0" x2="1" y2="1">
      <stop offset="0" stop-color="#5ec3ff"/>
      <stop offset="1" stop-color="#1a7fbd"/>
    </linearGradient>
    <linearGradient id="arc" x1="0" y1="0" x2="1" y2="0">
      <stop offset="0" stop-color="#8bd5ff"/>
      <stop offset="1" stop-color="#1f8ad6"/>
    </linearGradient>
  </defs>
  <rect width="520" height="200" rx="22" fill="#0f1927"/>
  <g transform="translate(40 20)">
    <path d="M160 10C99 10 51 57 51 116c0 44 27 83 66 98l43-16 43 16c39-15 66-54 66-98C269 57 221 10 160 10Z" fill="#111f33" stroke="#f3f7ff" stroke-width="6"/>
    <path d="M160 44c-44 0-80 33-80 74 0 34 23 64 56 73l24-9 24 9c33-9 56-39 56-73 0-41-36-74-80-74Z" fill="url(#shield)"/>
    <path d="M130 62h60l-10 20h-40l-10-20Z" fill="#0c2942" opacity="0.6"/>
    <path d="M160 64v86" stroke="#0c2942" stroke-width="8" stroke-linecap="round" opacity="0.6"/>
    <path d="M120 96h80" stroke="#0c2942" stroke-width="8" stroke-linecap="round" opacity="0.6"/>
  </g>
  <g transform="translate(210 32)">
    <text x="0" y="70" font-family="'Segoe UI', Arial, sans-serif" font-size="64" font-weight="700" fill="#f8fbff" letter-spacing="2">SKYWAY</text>
    <rect x="10" y="92" width="170" height="32" rx="16" fill="#132238" stroke="#5ec3ff" stroke-width="2"/>
    <text x="48" y="115" font-family="'Segoe UI', Arial, sans-serif" font-size="20" font-weight="600" fill="#d9ecff" letter-spacing="2">PARKING</text>
  </g>
  <g transform="translate(235 118)">
    <path d="M0 28c48-18 136-28 230-12" stroke="url(#arc)" stroke-width="6" stroke-linecap="round"/>
    <path d="M155 10l40 6 18-10 12 4-12 7 10 7-16 1-10 10-6-6-10 1-26-4-5-16Z" fill="#f3f7ff"/>
  </g>
</svg>
